<?xml version="1.0" encoding="utf-8"?>
<!-- Generator: Adobe Illustrator 15.0.0, SVG Export Plug-In . SVG Version: 6.00 Build 0)  -->
<!DOCTYPE svg PUBLIC "-//W3C//DTD SVG 1.1//EN" "http://www.w3.org/Graphics/SVG/1.1/DTD/svg11.dtd">
<svg version="1.1" id="Layer_1" xmlns="http://www.w3.org/2000/svg" xmlns:xlink="http://www.w3.org/1999/xlink" x="0px" y="0px"
	 width="200px" height="92px" viewBox="0 0 200 92" enable-background="new 0 0 200 92" xml:space="preserve">
<path fill="#FFFFFF" d="M93.475,22.506c0,0-7.204-23.37-33.192-22.481c-25.989,0.89-32.861,22.343-32.256,28.326
	c0,0-17.907-8.595-26.059,10.498C-6.185,57.942,12.74,72.907,26.693,71.228c13.952-1.68,40.886,25.02,67.636,11.295
	c26.751-13.726,35.476-4.418,52.146-8.592c16.069-4.025,25.81-8.201,40.19-6.455c0.534,0.065,1.077,0.139,1.625,0.221
	c15.29,2.279-15.894-8.262-25.504-8.334c0,0-11.671-25.219-25.582-22.341s-12.065,10.02-12.065,10.02S121.617,14.338,93.475,22.506"
	/>
<path fill="#E4F4F8" d="M146.475,73.931c16.069-4.024,25.81-8.2,40.19-6.455c0.534,0.064,1.077,0.14,1.625,0.221
	c1.503,0.223,2.543,0.318,3.211,0.318c-13.389-5.394-36.978-4.485-48.489-1.688c-11.513,2.795-17.147-9.821-17.147-9.821
	s-2.167,6.879-19.345,7.866C89.341,65.36,86.434,50.649,86.434,50.649s0.852,13.18-19.361,19.076S33.795,56.454,33.795,56.454
	s-3.38,6.521-12.08,9.619c-8.693,3.098-19.604-9.009-19.622-9.029c4.534,9.414,15.597,15.266,24.6,14.184
	c13.952-1.68,40.886,25.019,67.636,11.295C121.08,68.796,129.805,78.104,146.475,73.931"/>
</svg>
