<?xml version="1.0" encoding="utf-8"?>
<!-- Generator: Adobe Illustrator 15.0.0, SVG Export Plug-In . SVG Version: 6.00 Build 0)  -->
<!DOCTYPE svg PUBLIC "-//W3C//DTD SVG 1.1//EN" "http://www.w3.org/Graphics/SVG/1.1/DTD/svg11.dtd">
<svg version="1.1" id="Layer_1" xmlns="http://www.w3.org/2000/svg" xmlns:xlink="http://www.w3.org/1999/xlink" x="0px" y="0px"
	 width="1004.5px" height="137.388px" viewBox="0 12.973 1004.5 137.388" enable-background="new 0 12.973 1004.5 137.388"
	 xml:space="preserve">
<g>
	<rect x="0" y="47.693" fill="#CE783F" width="507" height="102.668"/>
	<g>
		<g>
			<g>
				<defs>
					<rect id="SVGID_1_" x="0" y="6.553" width="507" height="143.808"/>
				</defs>
				<clipPath id="SVGID_2_">
					<use xlink:href="#SVGID_1_"  overflow="visible"/>
				</clipPath>
				<path clip-path="url(#SVGID_2_)" fill="#B5683F" d="M-14.576,85.718c0,0,22.181,26.617,57.038,17.745
					c34.856-8.872,54.568-44.057,97.747-44.526c0,0-36.273,7.769-52.117,31.852c-15.844,24.082-38.659,51.334-99.499,30.42
					L-14.576,85.718z"/>
			</g>
		</g>
		<g>
			<g>
				<defs>
					<rect id="SVGID_3_" x="0" y="6.553" width="507" height="143.808"/>
				</defs>
				<clipPath id="SVGID_4_">
					<use xlink:href="#SVGID_3_"  overflow="visible"/>
				</clipPath>
				<path clip-path="url(#SVGID_4_)" fill="#B5683F" d="M235.755,47.693c0,0-50.347,9.809-53.235,36.124
					c-2.064,18.809-1.057,32.824-38.659,39.293c-40.269,6.927-74.783,47.531-74.783,47.531l59.582-2.28
					c0,0,3.793-16.099,16.468-28.773c14.896-14.897,41.827-3.803,49.432-61.474c3.815-28.93,58.938-25.984,58.938-25.984
					L235.755,47.693z"/>
			</g>
		</g>
		<g>
			<g>
				<defs>
					<rect id="SVGID_5_" x="0" y="6.553" width="507" height="143.808"/>
				</defs>
				<clipPath id="SVGID_6_">
					<use xlink:href="#SVGID_5_"  overflow="visible"/>
				</clipPath>
				<path clip-path="url(#SVGID_6_)" fill="#E59445" d="M74.149,44.28c0,0,3.137,2.852,1.267,17.99
					c-1.584,12.827-10.15,24.066-31.054,30.325c0,0,24.716,2.629,52.602-37.297L74.149,44.28z"/>
			</g>
		</g>
		<g>
			<g>
				<defs>
					<rect id="SVGID_7_" x="0" y="6.553" width="507" height="143.808"/>
				</defs>
				<clipPath id="SVGID_8_">
					<use xlink:href="#SVGID_7_"  overflow="visible"/>
				</clipPath>
				<path clip-path="url(#SVGID_8_)" fill="#E59445" d="M174.915,204.864c0,0,20.914-103.936,135.623-106.471
					c114.708-2.535,115.976-50.7,115.976-50.7s5.704,46.898-100.766,61.475s-55.136,154.001-55.136,154.001L174.915,204.864z"/>
			</g>
		</g>
		<g>
			<g>
				<defs>
					<rect id="SVGID_9_" x="0" y="6.553" width="507" height="143.808"/>
				</defs>
				<clipPath id="SVGID_10_">
					<use xlink:href="#SVGID_9_"  overflow="visible"/>
				</clipPath>
				<path clip-path="url(#SVGID_10_)" fill="#B5683F" d="M269.978,47.693c0,0-27.885,20.28-30.42,39.927
					s-38.024,19.646-45.629,32.955c0,0,13.942-6.96,31.053-11.407c16.136-4.195,18.379-4.014,23.237-22.713
					c1.919-7.386-5.07-24.185,45.208-18c32.701,4.023,59.573-17.593,59.573-17.593l-21.548-3.169c0,0-13.88,20.422-30.711,17.111
					C283.911,61.494,269.978,47.693,269.978,47.693"/>
			</g>
		</g>
		<g>
			<g>
				<defs>
					<rect id="SVGID_11_" x="0" y="6.553" width="507" height="143.808"/>
				</defs>
				<clipPath id="SVGID_12_">
					<use xlink:href="#SVGID_11_"  overflow="visible"/>
				</clipPath>
				<path clip-path="url(#SVGID_12_)" fill="#B5683F" d="M519.247,77.48c0,0-23.021-57.672-122.52,25.983
					s-123.265,62.107-123.265,62.107l7.289,13.942l57.671-24.082c0,0,51.968-48.799,98.865-71.297
					c46.897-22.498,98.577,30.736,98.577,30.736L519.247,77.48z"/>
			</g>
		</g>
		<g>
			<g>
				<defs>
					<rect id="SVGID_13_" x="0" y="6.553" width="507" height="143.808"/>
				</defs>
				<clipPath id="SVGID_14_">
					<use xlink:href="#SVGID_13_"  overflow="visible"/>
				</clipPath>
			</g>
		</g>
		<g>
			<g>
				<defs>
					<rect id="SVGID_15_" x="0" y="6.553" width="507" height="143.808"/>
				</defs>
				<clipPath id="SVGID_16_">
					<use xlink:href="#SVGID_15_"  overflow="visible"/>
				</clipPath>
				<path clip-path="url(#SVGID_16_)" fill="#E59445" d="M23.449,184.583c0,0,72.881-84.602,105.836-90.782
					c32.955-6.182,45.63-31.531,45.63-31.531s-11.219,31.001-44.996,40.56C96.142,112.386,23.449,184.583,23.449,184.583"/>
			</g>
		</g>
		<g>
			<g>
				<defs>
					<rect id="SVGID_17_" x="0" y="6.553" width="507" height="143.808"/>
				</defs>
				<clipPath id="SVGID_18_">
					<use xlink:href="#SVGID_17_"  overflow="visible"/>
				</clipPath>
				<path clip-path="url(#SVGID_18_)" fill="#9C5D40" d="M8.239,75.579c0,0,16.478-9.507,23.449,0
					c6.971,9.506-9.506,8.872-17.111,8.556C6.971,83.817,8.239,75.579,8.239,75.579"/>
			</g>
		</g>
		<g>
			<g>
				<defs>
					<rect id="SVGID_19_" x="0" y="6.553" width="507" height="143.808"/>
				</defs>
				<clipPath id="SVGID_20_">
					<use xlink:href="#SVGID_19_"  overflow="visible"/>
				</clipPath>
				<path clip-path="url(#SVGID_20_)" fill="#9C5D40" d="M313.464,129.78c0,0,12.753-7.355,18.149,0
					c5.396,7.357-7.357,6.867-13.243,6.622C312.484,136.159,313.464,129.78,313.464,129.78"/>
			</g>
		</g>
		<g>
			<g>
				<defs>
					<rect id="SVGID_21_" x="0" y="6.553" width="507" height="143.808"/>
				</defs>
				<clipPath id="SVGID_22_">
					<use xlink:href="#SVGID_21_"  overflow="visible"/>
				</clipPath>
				<path clip-path="url(#SVGID_22_)" fill="#9C5D40" d="M44.363,68.455c0,0-6.337,9.065,0,9.361
					C50.7,78.112,51.968,65.768,44.363,68.455"/>
			</g>
		</g>
		<g>
			<g>
				<defs>
					<rect id="SVGID_23_" x="0" y="6.553" width="507" height="143.808"/>
				</defs>
				<clipPath id="SVGID_24_">
					<use xlink:href="#SVGID_23_"  overflow="visible"/>
				</clipPath>
				<path clip-path="url(#SVGID_24_)" fill="#9C5D40" d="M23.091,91.838l0.048-0.04c0.979-0.825,2.312-1.057,3.499-0.614
					l1.186,0.442c1.108,0.412,1.307,1.895,0.348,2.586l-1.287,0.927c-0.832,0.597-1.912,0.724-2.858,0.333
					c-0.135-0.057-0.276-0.115-0.419-0.176C22.205,94.694,21.924,92.824,23.091,91.838"/>
			</g>
		</g>
		<g>
			<g>
				<defs>
					<rect id="SVGID_25_" x="0" y="6.553" width="507" height="143.808"/>
				</defs>
				<clipPath id="SVGID_26_">
					<use xlink:href="#SVGID_25_"  overflow="visible"/>
				</clipPath>
				<path clip-path="url(#SVGID_26_)" fill="#9C5D40" d="M36.758,84.28c0,0,3.689,4.896,8.816,0
					C50.7,79.38,33.068,79.38,36.758,84.28"/>
			</g>
		</g>
		<g>
			<g>
				<defs>
					<rect id="SVGID_27_" x="0" y="6.553" width="507" height="143.808"/>
				</defs>
				<clipPath id="SVGID_28_">
					<use xlink:href="#SVGID_27_"  overflow="visible"/>
				</clipPath>
				<path clip-path="url(#SVGID_28_)" fill="#9C5D40" d="M107.949,88.887c0,0,3.379-11.072,12.252-8.281
					c8.873,2.788,5.916,5.849,5.916,5.849S112.597,93.534,107.949,88.887"/>
			</g>
		</g>
		<g>
			<g>
				<defs>
					<rect id="SVGID_29_" x="0" y="6.553" width="507" height="143.808"/>
				</defs>
				<clipPath id="SVGID_30_">
					<use xlink:href="#SVGID_29_"  overflow="visible"/>
				</clipPath>
				<path clip-path="url(#SVGID_30_)" fill="#9C5D40" d="M284.76,79.504c0,0-5.126,7.332,0,7.572
					C289.885,87.316,290.911,77.333,284.76,79.504"/>
			</g>
		</g>
		<g>
			<g>
				<defs>
					<rect id="SVGID_31_" x="0" y="6.553" width="507" height="143.808"/>
				</defs>
				<clipPath id="SVGID_32_">
					<use xlink:href="#SVGID_31_"  overflow="visible"/>
				</clipPath>
				<path clip-path="url(#SVGID_32_)" fill="#9C5D40" d="M255.327,81.492c0,0,2.984,3.961,7.131,0
					C266.604,77.529,252.342,77.529,255.327,81.492"/>
			</g>
		</g>
		<g>
			<g>
				<defs>
					<rect id="SVGID_33_" x="0" y="6.553" width="507" height="143.808"/>
				</defs>
				<clipPath id="SVGID_34_">
					<use xlink:href="#SVGID_33_"  overflow="visible"/>
				</clipPath>
				<path clip-path="url(#SVGID_34_)" fill="#9C5D40" d="M265.09,85.078c0,0,2.734-8.956,9.913-6.698
					c7.175,2.256,4.784,4.732,4.784,4.732S268.85,88.837,265.09,85.078"/>
			</g>
		</g>
		<g>
			<g>
				<defs>
					<rect id="SVGID_35_" x="0" y="6.553" width="507" height="143.808"/>
				</defs>
				<clipPath id="SVGID_36_">
					<use xlink:href="#SVGID_35_"  overflow="visible"/>
				</clipPath>
				<path clip-path="url(#SVGID_36_)" fill="#9C5D40" d="M123.83,72.407L123.83,72.407c-1.363,1.955-0.816,4.671,1.221,5.904
					c3.123,1.892,7.687,3.9,11.207,2.294c1.971-0.902,2.593-2.992,2.199-5.23C137.223,68.366,127.903,66.572,123.83,72.407"/>
			</g>
		</g>
		<g>
			<g>
				<defs>
					<rect id="SVGID_37_" x="0" y="6.553" width="507" height="143.808"/>
				</defs>
				<clipPath id="SVGID_38_">
					<use xlink:href="#SVGID_37_"  overflow="visible"/>
				</clipPath>
				<path clip-path="url(#SVGID_38_)" fill="#9C5D40" d="M291.088,136.726L291.088,136.726c-1.056,1.513-0.631,3.613,0.946,4.571
					c2.415,1.464,5.949,3.02,8.672,1.774c1.526-0.698,2.008-2.315,1.705-4.048C301.455,133.599,294.241,132.211,291.088,136.726"/>
			</g>
		</g>
		<g>
			<g>
				<defs>
					<rect id="SVGID_39_" x="0" y="6.553" width="507" height="143.808"/>
				</defs>
				<clipPath id="SVGID_40_">
					<use xlink:href="#SVGID_39_"  overflow="visible"/>
				</clipPath>
				<path clip-path="url(#SVGID_40_)" fill="#9C5D40" d="M114.112,72.948l-0.836,1.006c-1.277,1.537-0.182,3.866,1.815,3.865
					l1.334-0.001c0.935,0,1.637-0.855,1.456-1.773C117.524,74.245,115.947,72.948,114.112,72.948"/>
			</g>
		</g>
		<g>
			<g>
				<defs>
					<rect id="SVGID_41_" x="0" y="6.553" width="507" height="143.808"/>
				</defs>
				<clipPath id="SVGID_42_">
					<use xlink:href="#SVGID_41_"  overflow="visible"/>
				</clipPath>
				<path clip-path="url(#SVGID_42_)" fill="#9C5D40" d="M476.58,143.694c0,0,3.379-11.072,12.252-8.28
					c8.872,2.788,5.915,5.849,5.915,5.849S481.227,148.342,476.58,143.694"/>
			</g>
		</g>
		<g>
			<g>
				<defs>
					<rect id="SVGID_43_" x="0" y="6.553" width="507" height="143.808"/>
				</defs>
				<clipPath id="SVGID_44_">
					<use xlink:href="#SVGID_43_"  overflow="visible"/>
				</clipPath>
				<path clip-path="url(#SVGID_44_)" fill="#9C5D40" d="M482.743,127.755l-0.837,1.006c-1.277,1.536-0.184,3.866,1.815,3.865
					l1.333-0.001c0.938-0.001,1.637-0.855,1.457-1.773C486.156,129.052,484.576,127.755,482.743,127.755"/>
			</g>
		</g>
		<g>
			<g>
				<defs>
					<rect id="SVGID_45_" x="0" y="6.553" width="507" height="143.808"/>
				</defs>
				<clipPath id="SVGID_46_">
					<use xlink:href="#SVGID_45_"  overflow="visible"/>
				</clipPath>
				<path clip-path="url(#SVGID_46_)" fill="#9C5D40" d="M278.198,84.385l-0.676,0.814c-1.032,1.243-0.147,3.128,1.468,3.127h1.078
					c0.756-0.002,1.325-0.693,1.177-1.435C280.958,85.436,279.682,84.385,278.198,84.385"/>
			</g>
		</g>
		<g>
			<g>
				<defs>
					<rect id="SVGID_47_" x="0" y="6.553" width="507" height="143.808"/>
				</defs>
				<clipPath id="SVGID_48_">
					<use xlink:href="#SVGID_47_"  overflow="visible"/>
				</clipPath>
				<path clip-path="url(#SVGID_48_)" fill="#9C5D40" d="M311.111,141.911l0.919-0.427c1.403-0.65,1.411-2.642,0.013-3.306
					l-0.933-0.441c-0.655-0.31-1.428,0.056-1.606,0.756C309.154,139.87,309.827,141.301,311.111,141.911"/>
			</g>
		</g>
		<g>
			<g>
				<defs>
					<rect id="SVGID_49_" x="0" y="6.553" width="507" height="143.808"/>
				</defs>
				<clipPath id="SVGID_50_">
					<use xlink:href="#SVGID_49_"  overflow="visible"/>
				</clipPath>
				<path clip-path="url(#SVGID_50_)" fill="#9C5D40" d="M11.619,153.952c0.634-0.422,5.281-13.942,15.21-10.351
					c9.929,3.591,6.539,10.351,6.539,10.351H11.619z"/>
			</g>
		</g>
		<g>
			<g>
				<defs>
					<rect id="SVGID_51_" x="0" y="6.553" width="507" height="143.808"/>
				</defs>
				<clipPath id="SVGID_52_">
					<use xlink:href="#SVGID_51_"  overflow="visible"/>
				</clipPath>
				<path clip-path="url(#SVGID_52_)" fill="#9C5D40" d="M9.929,136.207c0,0-2.112,5.126,1.69,6.788
					c3.803,1.662,6.126-3.394,6.126-3.394l-4.201-3.394L9.929,136.207L9.929,136.207z"/>
			</g>
		</g>
		<g>
			<g>
				<defs>
					<rect id="SVGID_53_" x="0" y="6.553" width="507" height="143.808"/>
				</defs>
				<clipPath id="SVGID_54_">
					<use xlink:href="#SVGID_53_"  overflow="visible"/>
				</clipPath>
				<path clip-path="url(#SVGID_54_)" fill="#9C5D40" d="M298.361,126.96c0,0-1.635,3.967,1.308,5.253
					c2.942,1.286,4.74-2.628,4.74-2.628l-3.252-2.626L298.361,126.96L298.361,126.96z"/>
			</g>
		</g>
		<g>
			<g>
				<defs>
					<rect id="SVGID_55_" x="0" y="6.553" width="507" height="143.808"/>
				</defs>
				<clipPath id="SVGID_56_">
					<use xlink:href="#SVGID_55_"  overflow="visible"/>
				</clipPath>
				<path clip-path="url(#SVGID_56_)" fill="#9C5D40" d="M278.779,73.696l1.389-0.56c0,0,2.358,1.525,0,3.943
					c-1.177,1.207-1.807,1.269-2.355,0.716C276.558,76.532,277.127,74.363,278.779,73.696"/>
			</g>
		</g>
		<g>
			<g>
				<defs>
					<rect id="SVGID_57_" x="0" y="6.553" width="507" height="143.808"/>
				</defs>
				<clipPath id="SVGID_58_">
					<use xlink:href="#SVGID_57_"  overflow="visible"/>
				</clipPath>
				<path clip-path="url(#SVGID_58_)" fill="#9C5D40" d="M154.424,155.431c1.69-1.058,9.295-19.029,16.9-18.916
					s15.632-2.422,19.012-0.309c3.38,2.113,2.958,3.435,3.591,6.788c0.633,3.353-14.577,14.76-14.577,14.76L154.424,155.431z"/>
			</g>
		</g>
		<g>
			<g>
				<defs>
					<rect id="SVGID_59_" x="0" y="6.553" width="507" height="143.808"/>
				</defs>
				<clipPath id="SVGID_60_">
					<use xlink:href="#SVGID_59_"  overflow="visible"/>
				</clipPath>
				<path clip-path="url(#SVGID_60_)" fill="#9C5D40" d="M363.139,53.819c0,0-5.916,15.634,0,16.901c5.914,1.268,18.167,0,18.167,0
					l4.225-14.788L363.139,53.819z"/>
			</g>
		</g>
		<g>
			<g>
				<defs>
					<rect id="SVGID_61_" x="0" y="6.553" width="507" height="143.808"/>
				</defs>
				<clipPath id="SVGID_62_">
					<use xlink:href="#SVGID_61_"  overflow="visible"/>
				</clipPath>
				<path clip-path="url(#SVGID_62_)" fill="#9C5D40" d="M388.489,62.27c0,0-3.802,5.255,0,6.641s10.984-1.268,9.717-3.32
					C396.938,63.537,393.949,59.846,388.489,62.27"/>
			</g>
		</g>
		<g>
			<g>
				<defs>
					<rect id="SVGID_63_" x="0" y="6.553" width="507" height="143.808"/>
				</defs>
				<clipPath id="SVGID_64_">
					<use xlink:href="#SVGID_63_"  overflow="visible"/>
				</clipPath>
				<path clip-path="url(#SVGID_64_)" fill="#9C5D40" d="M352.999,65.384c0,0,2.957,8.099-2.113,7.563
					c-5.07-0.538-4.225-7.563-4.225-7.563S350.041,62.583,352.999,65.384"/>
			</g>
		</g>
		<g>
			<g>
				<defs>
					<rect id="SVGID_65_" x="0" y="6.553" width="507" height="143.808"/>
				</defs>
				<clipPath id="SVGID_66_">
					<use xlink:href="#SVGID_65_"  overflow="visible"/>
				</clipPath>
				<path clip-path="url(#SVGID_66_)" fill="#9C5D40" d="M440.033,157.754c0.423-1.689,12.675-27.555,19.857-26.241
					c7.184,1.314,16.056,6.112,16.056,6.112s-1.268,18.017-2.958,17.806C471.299,155.219,440.033,157.754,440.033,157.754"/>
			</g>
		</g>
		<g>
			<g>
				<defs>
					<rect id="SVGID_67_" x="0" y="6.553" width="507" height="143.808"/>
				</defs>
				<clipPath id="SVGID_68_">
					<use xlink:href="#SVGID_67_"  overflow="visible"/>
				</clipPath>
				<path clip-path="url(#SVGID_68_)" fill="#9C5D40" d="M428.625,131.513c0,0-5.914,8.015,0,8.255
					c5.916,0.24,14.788-7.296,14.788-7.296S440.878,120.482,428.625,131.513"/>
			</g>
		</g>
	</g>
	<g>
		<g>
			<g>
				<defs>
					<path id="SVGID_69_" d="M9.286-25.012C6.235-22.839,3.128-20.641,0-18.437"/>
				</defs>
				<clipPath id="SVGID_70_">
					<use xlink:href="#SVGID_69_"  overflow="visible"/>
				</clipPath>
			</g>
			<g>
				<defs>
					<path id="SVGID_71_" d="M9.286-25.012C6.235-22.839,3.128-20.641,0-18.437"/>
				</defs>
				<defs>
					<polyline id="SVGID_72_" points="0,-18.437 0,44.382 193.434,44.382 					"/>
				</defs>
				<clipPath id="SVGID_73_">
					<use xlink:href="#SVGID_71_"  overflow="visible"/>
				</clipPath>
				<clipPath id="SVGID_74_" clip-path="url(#SVGID_73_)">
					<use xlink:href="#SVGID_72_"  overflow="visible"/>
				</clipPath>
				
					<linearGradient id="SVGID_75_" gradientUnits="userSpaceOnUse" x1="209.9841" y1="244.0239" x2="210.6174" y2="244.0239" gradientTransform="matrix(-374.9804 409.4789 409.4789 374.9804 -21123.8906 -177437.4375)">
					<stop  offset="0" style="stop-color:#718246"/>
					<stop  offset="1" style="stop-color:#F9B5B1"/>
				</linearGradient>
				<polygon clip-path="url(#SVGID_74_)" fill="url(#SVGID_75_)" points="227.998,6.64 105.208,140.727 -34.563,12.731 
					88.227,-121.356 				"/>
			</g>
		</g>
	</g>
	<g>
		<g>
			<g>
				<defs>
					<rect id="SVGID_76_" x="0" y="6.553" width="507" height="143.808"/>
				</defs>
				<clipPath id="SVGID_77_">
					<use xlink:href="#SVGID_76_"  overflow="visible"/>
				</clipPath>
				<path clip-path="url(#SVGID_77_)" fill="#71A642" d="M502.251,34.018c-88.208-7.605-174.454,3.803-262.005,0.634
					c-15.681,0-30.708,0-46.389-3.168c-11.108-2.535-20.908-6.971-32.668-4.437c-32.017,6.337-62.071,6.971-93.433,7.605
					c-23.521,0.634-48.349,3.803-70.565-3.168c-1.302,0-0.292-0.289,0.343-2.148c-0.723-0.014-1.443-0.021-2.16-0.021
					c0.652,5.704-3.267,28.519-1.307,28.519c22.215,6.971,47.043,3.803,70.564,3.169c31.362-0.634,61.417-1.268,93.434-7.605
					c11.761-2.535,21.561,1.901,32.669,4.437c15.68,3.169,30.708,3.169,46.388,3.169c87.553,3.168,173.799-8.239,262.004-0.634
					c5.228,0.634,11.108,0,16.436-0.688c0,0,0.061-0.989,0.144-2.466c0.718-3.008,0.653-20.584,0.535-23.583
					C511.598,34.179,506.69,34.557,502.251,34.018"/>
			</g>
		</g>
		<g>
			<g>
				<defs>
					<rect id="SVGID_78_" x="0" y="6.553" width="507" height="143.808"/>
				</defs>
				<clipPath id="SVGID_79_">
					<use xlink:href="#SVGID_78_"  overflow="visible"/>
				</clipPath>
				<g clip-path="url(#SVGID_79_)">
					<g>
						<g opacity="0.5">
							<g>
								<defs>
									<rect id="SVGID_80_" x="-6.487" y="52.64" width="522.408" height="15.916"/>
								</defs>
								<clipPath id="SVGID_81_">
									<use xlink:href="#SVGID_80_"  overflow="visible"/>
								</clipPath>
								<path clip-path="url(#SVGID_81_)" fill="#492F1A" d="M515.56,59.681c-5.326,0.688-11.208,1.321-16.435,0.688
									c-88.206-7.605-174.452,3.802-262.005,0.634c-15.681,0-30.708,0-46.388-3.169c-11.107-2.535-20.908-6.972-32.668-4.437
									c-32.016,6.338-62.071,6.972-93.434,7.605c-23.521,0.634-48.35,3.802-70.564-3.169c-0.148,0-0.259-0.146-0.344-0.387
									c-0.306,3.876-0.341,6.673,0.344,6.673c22.215,6.972,47.043,3.803,70.564,3.169c31.362-0.634,61.417-1.268,93.434-7.604
									c11.76-2.535,21.561,1.901,32.668,4.436c15.681,3.169,30.708,3.169,46.388,3.169c87.553,3.169,173.799-8.238,262.005-0.634
									c5.227,0.634,11.106,0,16.435-0.687c0,0,0.06-0.989,0.144-2.467C516.264,61.149,515.56,59.681,515.56,59.681"/>
							</g>
						</g>
					</g>
					<g>
						<defs>
							<rect id="SVGID_82_" x="0" y="6.553" width="507" height="143.808"/>
						</defs>
						<clipPath id="SVGID_83_">
							<use xlink:href="#SVGID_82_"  overflow="visible"/>
						</clipPath>
						<g clip-path="url(#SVGID_83_)">
							<g>
								<g>
									<defs>
										<path id="SVGID_84_" d="M176.663,19.983c-1.877-0.009-3.762,0.019-5.655,0.093c-7.738,0.409-15.444,0.73-23.129,1.04
											l-1.951,0.077c-11.091,0.444-22.133,0.883-33.147,1.531l-1.351,0.077c-0.352,0.021-0.702,0.043-1.053,0.065l-7.218,0.485
											c-12.904,0.932-25.778,2.249-38.65,4.33c-7.89,1.435-16.246,1.424-24.749,0.857l-1.538-0.11
											c-0.133-0.01-0.266-0.018-0.399-0.028l-7.358-0.657C20.178,26.715,9.841,25.348,0,25.167v7.142
											c21.486,5.885,45.22,2.951,67.755,2.344c31.361-0.634,61.417-1.268,93.433-7.605c11.76-2.535,21.561,1.901,32.668,4.437
											c15.681,3.168,30.708,3.168,46.39,3.168c37.993,1.375,75.742,0.006,113.51-1.364c49.264-1.786,98.564-3.575,148.495,0.73
											c1.536,0.188,3.129,0.264,4.749,0.262v-7.955c-3.319,0.269-6.639,0.381-9.958,0.088
											c-20.108-1.788-40.173-2.821-60.206-3.29l-1.245-0.026c-8.713-0.194-17.417-0.286-26.119-0.28l-1.335,0.002
											c-0.351,0-0.7,0.002-1.05,0.004l-7.3,0.039c-28.146,0.229-56.243,1.361-84.319,2.893l-1.571,0.085
											c-16.926,0.933-33.844,2.005-50.765,3.108c-15.028,0.634-28.748-0.633-43.776-3.802
											c-11.319-2.196-22.326-4.085-33.452-4.829l-1.532-0.09c-0.143-0.008-0.286-0.018-0.428-0.025L176.663,19.983z"/>
									</defs>
									<clipPath id="SVGID_85_">
										<use xlink:href="#SVGID_84_"  overflow="visible"/>
									</clipPath>
									
										<linearGradient id="SVGID_86_" gradientUnits="userSpaceOnUse" x1="198.095" y1="250.6577" x2="198.7281" y2="250.6577" gradientTransform="matrix(0 -49.3661 -49.3661 0 12627.5098 9821.7715)">
										<stop  offset="0" style="stop-color:#93B93E"/>
										<stop  offset="1" style="stop-color:#BFD745"/>
									</linearGradient>
									<rect x="0" y="8.15" clip-path="url(#SVGID_85_)" fill="url(#SVGID_86_)" width="507" height="30.042"/>
								</g>
							</g>
						</g>
					</g>
				</g>
			</g>
		</g>
	</g>
</g>
<g>
	<rect x="498.5" y="48.693" fill="#CE783F" width="507" height="102.668"/>
	<g>
		<g>
			<g>
				<defs>
					<rect id="SVGID_87_" x="498.5" y="-30.271" width="507" height="143.808"/>
				</defs>
				<clipPath id="SVGID_88_">
					<use xlink:href="#SVGID_87_"  overflow="visible"/>
				</clipPath>
				<path clip-path="url(#SVGID_88_)" fill="#B5683F" d="M483.924,48.894c0,0,22.182,26.617,57.037,17.745
					c34.856-8.872,54.235-38.311,97.414-38.78c0,0-35.939,2.022-51.783,26.105c-15.844,24.082-38.659,51.334-99.5,30.42
					L483.924,48.894z"/>
			</g>
		</g>
		<g>
			<g>
				<defs>
					<rect id="SVGID_89_" x="498.5" y="7.553" width="507" height="143.808"/>
				</defs>
				<clipPath id="SVGID_90_">
					<use xlink:href="#SVGID_89_"  overflow="visible"/>
				</clipPath>
				<path clip-path="url(#SVGID_90_)" fill="#B5683F" d="M734.255,48.693c0,0-50.347,9.809-53.235,36.124
					c-2.063,18.809-1.057,32.824-38.658,39.293c-40.269,6.927-74.783,47.531-74.783,47.531l59.582-2.28
					c0,0,3.793-16.099,16.469-28.773c14.896-14.897,41.827-3.803,49.432-61.474C696.876,50.184,752,53.129,752,53.129
					L734.255,48.693z"/>
			</g>
		</g>
		<g>
			<g>
				<defs>
					<rect id="SVGID_91_" x="498.5" y="7.553" width="507" height="143.808"/>
				</defs>
				<clipPath id="SVGID_92_">
					<use xlink:href="#SVGID_91_"  overflow="visible"/>
				</clipPath>
				<path clip-path="url(#SVGID_92_)" fill="#E59445" d="M572.649,45.28c0,0,3.138,2.852,1.268,17.99
					c-1.584,12.827-10.15,24.066-31.054,30.325c0,0,24.716,2.629,52.602-37.297L572.649,45.28z"/>
			</g>
		</g>
		<g>
			<g>
				<defs>
					<rect id="SVGID_93_" x="498.5" y="7.553" width="507" height="143.808"/>
				</defs>
				<clipPath id="SVGID_94_">
					<use xlink:href="#SVGID_93_"  overflow="visible"/>
				</clipPath>
				<path clip-path="url(#SVGID_94_)" fill="#E59445" d="M673.415,205.864c0,0,20.913-103.936,135.622-106.471
					s115.977-50.7,115.977-50.7s5.704,46.898-100.766,61.475c-106.471,14.576-55.137,154.001-55.137,154.001L673.415,205.864z"/>
			</g>
		</g>
		<g>
			<g>
				<defs>
					<rect id="SVGID_95_" x="498.5" y="7.553" width="507" height="143.808"/>
				</defs>
				<clipPath id="SVGID_96_">
					<use xlink:href="#SVGID_95_"  overflow="visible"/>
				</clipPath>
				<path clip-path="url(#SVGID_96_)" fill="#B5683F" d="M768.478,48.693c0,0-27.886,20.28-30.421,39.927
					s-38.023,19.646-45.629,32.955c0,0,13.942-6.96,31.053-11.407c16.137-4.195,18.379-4.014,23.237-22.713
					c1.919-7.386-5.069-24.185,45.208-18c32.701,4.023,59.573-17.593,59.573-17.593l-21.548-3.169c0,0-13.881,20.422-30.711,17.111
					C782.411,62.494,768.478,48.693,768.478,48.693"/>
			</g>
		</g>
		<g>
			<g>
				<defs>
					<rect id="SVGID_97_" x="498.5" y="7.553" width="507" height="143.808"/>
				</defs>
				<clipPath id="SVGID_98_">
					<use xlink:href="#SVGID_97_"  overflow="visible"/>
				</clipPath>
				<path clip-path="url(#SVGID_98_)" fill="#B5683F" d="M1017.747,78.48c0,0-23.021-57.672-122.52,25.983
					s-123.265,62.107-123.265,62.107l7.289,13.942l57.67-24.082c0,0,51.969-48.799,98.865-71.297
					c46.897-22.498,98.577,30.736,98.577,30.736L1017.747,78.48z"/>
			</g>
		</g>
		<g>
			<g>
				<defs>
					<rect id="SVGID_99_" x="498.5" y="7.553" width="507" height="143.808"/>
				</defs>
				<clipPath id="SVGID_100_">
					<use xlink:href="#SVGID_99_"  overflow="visible"/>
				</clipPath>
				<path clip-path="url(#SVGID_100_)" fill="#E59445" d="M1023.879,138.052c0,0-43.729-45.63-82.388-24.083
					c-38.659,21.548-59.762,30.4-70.347,24.083c0,0,25.351,3.169,63.375-35.49c38.025-38.658,89.359,18.743,89.359,18.743V138.052z"
					/>
			</g>
		</g>
		<g>
			<g>
				<defs>
					<rect id="SVGID_101_" x="498.5" y="7.553" width="507" height="143.808"/>
				</defs>
				<clipPath id="SVGID_102_">
					<use xlink:href="#SVGID_101_"  overflow="visible"/>
				</clipPath>
				<path clip-path="url(#SVGID_102_)" fill="#E59445" d="M521.949,185.583c0,0,72.881-84.602,105.836-90.782
					c32.955-6.182,45.63-31.531,45.63-31.531s-11.22,31.001-44.996,40.56C594.643,113.386,521.949,185.583,521.949,185.583"/>
			</g>
		</g>
		<g>
			<g>
				<defs>
					<rect id="SVGID_103_" x="498.5" y="7.553" width="507" height="143.808"/>
				</defs>
				<clipPath id="SVGID_104_">
					<use xlink:href="#SVGID_103_"  overflow="visible"/>
				</clipPath>
				<path clip-path="url(#SVGID_104_)" fill="#9C5D40" d="M506.739,76.579c0,0,16.479-9.507,23.449,0
					c6.971,9.506-9.506,8.872-17.111,8.556C505.471,84.817,506.739,76.579,506.739,76.579"/>
			</g>
		</g>
		<g>
			<g>
				<defs>
					<rect id="SVGID_105_" x="498.5" y="7.553" width="507" height="143.808"/>
				</defs>
				<clipPath id="SVGID_106_">
					<use xlink:href="#SVGID_105_"  overflow="visible"/>
				</clipPath>
				<path clip-path="url(#SVGID_106_)" fill="#9C5D40" d="M811.964,130.78c0,0,12.753-7.355,18.149,0
					c5.396,7.357-7.357,6.867-13.243,6.622C810.984,137.159,811.964,130.78,811.964,130.78"/>
			</g>
		</g>
		<g>
			<g>
				<defs>
					<rect id="SVGID_107_" x="498.5" y="7.553" width="507" height="143.808"/>
				</defs>
				<clipPath id="SVGID_108_">
					<use xlink:href="#SVGID_107_"  overflow="visible"/>
				</clipPath>
				<path clip-path="url(#SVGID_108_)" fill="#9C5D40" d="M542.863,69.455c0,0-6.337,9.065,0,9.361
					C549.2,79.112,550.467,66.768,542.863,69.455"/>
			</g>
		</g>
		<g>
			<g>
				<defs>
					<rect id="SVGID_109_" x="498.5" y="7.553" width="507" height="143.808"/>
				</defs>
				<clipPath id="SVGID_110_">
					<use xlink:href="#SVGID_109_"  overflow="visible"/>
				</clipPath>
				<path clip-path="url(#SVGID_110_)" fill="#9C5D40" d="M521.591,92.838l0.048-0.04c0.979-0.825,2.312-1.057,3.499-0.614
					l1.186,0.442c1.108,0.412,1.308,1.895,0.349,2.586l-1.287,0.927c-0.832,0.597-1.912,0.724-2.857,0.333
					c-0.135-0.057-0.276-0.115-0.42-0.176C520.705,95.694,520.424,93.824,521.591,92.838"/>
			</g>
		</g>
		<g>
			<g>
				<defs>
					<rect id="SVGID_111_" x="498.5" y="7.553" width="507" height="143.808"/>
				</defs>
				<clipPath id="SVGID_112_">
					<use xlink:href="#SVGID_111_"  overflow="visible"/>
				</clipPath>
				<path clip-path="url(#SVGID_112_)" fill="#9C5D40" d="M535.258,85.28c0,0,3.688,4.896,8.816,0
					C549.2,80.38,531.569,80.38,535.258,85.28"/>
			</g>
		</g>
		<g>
			<g>
				<defs>
					<rect id="SVGID_113_" x="498.5" y="7.553" width="507" height="143.808"/>
				</defs>
				<clipPath id="SVGID_114_">
					<use xlink:href="#SVGID_113_"  overflow="visible"/>
				</clipPath>
				<path clip-path="url(#SVGID_114_)" fill="#9C5D40" d="M606.449,89.887c0,0,3.379-11.072,12.252-8.281
					c8.872,2.788,5.915,5.849,5.915,5.849S611.097,94.534,606.449,89.887"/>
			</g>
		</g>
		<g>
			<g>
				<defs>
					<rect id="SVGID_115_" x="498.5" y="7.553" width="507" height="143.808"/>
				</defs>
				<clipPath id="SVGID_116_">
					<use xlink:href="#SVGID_115_"  overflow="visible"/>
				</clipPath>
				<path clip-path="url(#SVGID_116_)" fill="#9C5D40" d="M783.26,80.504c0,0-5.127,7.332,0,7.572
					C788.385,88.316,789.411,78.333,783.26,80.504"/>
			</g>
		</g>
		<g>
			<g>
				<defs>
					<rect id="SVGID_117_" x="498.5" y="7.553" width="507" height="143.808"/>
				</defs>
				<clipPath id="SVGID_118_">
					<use xlink:href="#SVGID_117_"  overflow="visible"/>
				</clipPath>
				<path clip-path="url(#SVGID_118_)" fill="#9C5D40" d="M753.827,82.492c0,0,2.984,3.961,7.131,0
					C765.104,78.529,750.842,78.529,753.827,82.492"/>
			</g>
		</g>
		<g>
			<g>
				<defs>
					<rect id="SVGID_119_" x="498.5" y="7.553" width="507" height="143.808"/>
				</defs>
				<clipPath id="SVGID_120_">
					<use xlink:href="#SVGID_119_"  overflow="visible"/>
				</clipPath>
				<path clip-path="url(#SVGID_120_)" fill="#9C5D40" d="M763.59,86.078c0,0,2.734-8.956,9.912-6.698
					c7.176,2.256,4.783,4.732,4.783,4.732S767.35,89.837,763.59,86.078"/>
			</g>
		</g>
		<g>
			<g>
				<defs>
					<rect id="SVGID_121_" x="498.5" y="7.553" width="507" height="143.808"/>
				</defs>
				<clipPath id="SVGID_122_">
					<use xlink:href="#SVGID_121_"  overflow="visible"/>
				</clipPath>
				<path clip-path="url(#SVGID_122_)" fill="#9C5D40" d="M622.33,73.407L622.33,73.407c-1.363,1.955-0.816,4.671,1.221,5.904
					c3.122,1.892,7.687,3.9,11.206,2.294c1.971-0.902,2.593-2.992,2.199-5.23C635.723,69.366,626.403,67.572,622.33,73.407"/>
			</g>
		</g>
		<g>
			<g>
				<defs>
					<rect id="SVGID_123_" x="498.5" y="7.553" width="507" height="143.808"/>
				</defs>
				<clipPath id="SVGID_124_">
					<use xlink:href="#SVGID_123_"  overflow="visible"/>
				</clipPath>
				<path clip-path="url(#SVGID_124_)" fill="#9C5D40" d="M789.588,137.726L789.588,137.726c-1.056,1.513-0.631,3.613,0.945,4.571
					c2.416,1.464,5.949,3.02,8.672,1.774c1.527-0.698,2.008-2.315,1.705-4.048C799.955,134.599,792.74,133.211,789.588,137.726"/>
			</g>
		</g>
		<g>
			<g>
				<defs>
					<rect id="SVGID_125_" x="498.5" y="7.553" width="507" height="143.808"/>
				</defs>
				<clipPath id="SVGID_126_">
					<use xlink:href="#SVGID_125_"  overflow="visible"/>
				</clipPath>
				<path clip-path="url(#SVGID_126_)" fill="#9C5D40" d="M612.612,73.948l-0.836,1.006c-1.277,1.537-0.183,3.866,1.814,3.865
					l1.334-0.001c0.936,0,1.638-0.855,1.457-1.773C616.024,75.245,614.448,73.948,612.612,73.948"/>
			</g>
		</g>
		<g>
			<g>
				<defs>
					<rect id="SVGID_127_" x="498.5" y="7.553" width="507" height="143.808"/>
				</defs>
				<clipPath id="SVGID_128_">
					<use xlink:href="#SVGID_127_"  overflow="visible"/>
				</clipPath>
				<path clip-path="url(#SVGID_128_)" fill="#9C5D40" d="M975.08,144.694c0,0,3.379-11.072,12.252-8.28
					c8.872,2.788,5.915,5.849,5.915,5.849S979.727,149.342,975.08,144.694"/>
			</g>
		</g>
		<g>
			<g>
				<defs>
					<rect id="SVGID_129_" x="498.5" y="7.553" width="507" height="143.808"/>
				</defs>
				<clipPath id="SVGID_130_">
					<use xlink:href="#SVGID_129_"  overflow="visible"/>
				</clipPath>
				<path clip-path="url(#SVGID_130_)" fill="#9C5D40" d="M981.243,128.755l-0.837,1.006c-1.277,1.536-0.184,3.866,1.815,3.865
					l1.333-0.001c0.938-0.001,1.637-0.855,1.457-1.773C984.656,130.052,983.076,128.755,981.243,128.755"/>
			</g>
		</g>
		<g>
			<g>
				<defs>
					<rect id="SVGID_131_" x="498.5" y="7.553" width="507" height="143.808"/>
				</defs>
				<clipPath id="SVGID_132_">
					<use xlink:href="#SVGID_131_"  overflow="visible"/>
				</clipPath>
				<path clip-path="url(#SVGID_132_)" fill="#9C5D40" d="M776.698,85.385l-0.676,0.814c-1.031,1.243-0.146,3.128,1.469,3.127h1.078
					c0.756-0.002,1.324-0.693,1.177-1.435C779.458,86.436,778.182,85.385,776.698,85.385"/>
			</g>
		</g>
		<g>
			<g>
				<defs>
					<rect id="SVGID_133_" x="498.5" y="7.553" width="507" height="143.808"/>
				</defs>
				<clipPath id="SVGID_134_">
					<use xlink:href="#SVGID_133_"  overflow="visible"/>
				</clipPath>
				<path clip-path="url(#SVGID_134_)" fill="#9C5D40" d="M809.611,142.911l0.919-0.427c1.403-0.65,1.41-2.642,0.014-3.306
					l-0.934-0.441c-0.654-0.31-1.428,0.056-1.606,0.756C807.655,140.87,808.327,142.301,809.611,142.911"/>
			</g>
		</g>
		<g>
			<g>
				<defs>
					<rect id="SVGID_135_" x="498.5" y="7.553" width="507" height="143.808"/>
				</defs>
				<clipPath id="SVGID_136_">
					<use xlink:href="#SVGID_135_"  overflow="visible"/>
				</clipPath>
				<path clip-path="url(#SVGID_136_)" fill="#9C5D40" d="M510.119,154.952c0.633-0.422,5.28-13.942,15.209-10.351
					c9.93,3.591,6.539,10.351,6.539,10.351H510.119z"/>
			</g>
		</g>
		<g>
			<g>
				<defs>
					<rect id="SVGID_137_" x="498.5" y="7.553" width="507" height="143.808"/>
				</defs>
				<clipPath id="SVGID_138_">
					<use xlink:href="#SVGID_137_"  overflow="visible"/>
				</clipPath>
				<path clip-path="url(#SVGID_138_)" fill="#9C5D40" d="M508.429,137.207c0,0-2.112,5.126,1.69,6.788s6.126-3.394,6.126-3.394
					l-4.2-3.394L508.429,137.207L508.429,137.207z"/>
			</g>
		</g>
		<g>
			<g>
				<defs>
					<rect id="SVGID_139_" x="498.5" y="7.553" width="507" height="143.808"/>
				</defs>
				<clipPath id="SVGID_140_">
					<use xlink:href="#SVGID_139_"  overflow="visible"/>
				</clipPath>
				<path clip-path="url(#SVGID_140_)" fill="#9C5D40" d="M796.861,127.96c0,0-1.636,3.967,1.308,5.253s4.74-2.628,4.74-2.628
					l-3.252-2.626L796.861,127.96L796.861,127.96z"/>
			</g>
		</g>
		<g>
			<g>
				<defs>
					<rect id="SVGID_141_" x="498.5" y="7.553" width="507" height="143.808"/>
				</defs>
				<clipPath id="SVGID_142_">
					<use xlink:href="#SVGID_141_"  overflow="visible"/>
				</clipPath>
				<path clip-path="url(#SVGID_142_)" fill="#9C5D40" d="M777.279,74.696l1.389-0.56c0,0,2.358,1.525,0,3.943
					c-1.177,1.207-1.808,1.269-2.355,0.716C775.058,77.532,775.627,75.363,777.279,74.696"/>
			</g>
		</g>
		<g>
			<g>
				<defs>
					<rect id="SVGID_143_" x="498.5" y="7.553" width="507" height="143.808"/>
				</defs>
				<clipPath id="SVGID_144_">
					<use xlink:href="#SVGID_143_"  overflow="visible"/>
				</clipPath>
				<path clip-path="url(#SVGID_144_)" fill="#9C5D40" d="M652.924,156.431c1.69-1.058,9.295-19.029,16.9-18.916
					s15.632-2.422,19.012-0.309c3.381,2.113,2.958,3.435,3.592,6.788c0.633,3.353-14.576,14.76-14.576,14.76L652.924,156.431z"/>
			</g>
		</g>
		<g>
			<g>
				<defs>
					<rect id="SVGID_145_" x="498.5" y="7.553" width="507" height="143.808"/>
				</defs>
				<clipPath id="SVGID_146_">
					<use xlink:href="#SVGID_145_"  overflow="visible"/>
				</clipPath>
				<path clip-path="url(#SVGID_146_)" fill="#9C5D40" d="M861.639,54.819c0,0-5.916,15.634,0,16.901c5.914,1.268,18.167,0,18.167,0
					l4.225-14.788L861.639,54.819z"/>
			</g>
		</g>
		<g>
			<g>
				<defs>
					<rect id="SVGID_147_" x="498.5" y="7.553" width="507" height="143.808"/>
				</defs>
				<clipPath id="SVGID_148_">
					<use xlink:href="#SVGID_147_"  overflow="visible"/>
				</clipPath>
				<path clip-path="url(#SVGID_148_)" fill="#9C5D40" d="M886.989,63.27c0,0-3.802,5.255,0,6.641
					c3.803,1.386,10.984-1.268,9.717-3.32C895.438,64.537,892.449,60.846,886.989,63.27"/>
			</g>
		</g>
		<g>
			<g>
				<defs>
					<rect id="SVGID_149_" x="498.5" y="7.553" width="507" height="143.808"/>
				</defs>
				<clipPath id="SVGID_150_">
					<use xlink:href="#SVGID_149_"  overflow="visible"/>
				</clipPath>
				<path clip-path="url(#SVGID_150_)" fill="#9C5D40" d="M851.499,66.384c0,0,2.957,8.099-2.113,7.563
					c-5.069-0.538-4.225-7.563-4.225-7.563S848.541,63.583,851.499,66.384"/>
			</g>
		</g>
		<g>
			<g>
				<defs>
					<rect id="SVGID_151_" x="498.5" y="7.553" width="507" height="143.808"/>
				</defs>
				<clipPath id="SVGID_152_">
					<use xlink:href="#SVGID_151_"  overflow="visible"/>
				</clipPath>
				<path clip-path="url(#SVGID_152_)" fill="#9C5D40" d="M938.533,158.754c0.423-1.689,12.675-27.555,19.857-26.241
					c7.184,1.314,16.056,6.112,16.056,6.112s-1.268,18.017-2.958,17.806C969.799,156.219,938.533,158.754,938.533,158.754"/>
			</g>
		</g>
		<g>
			<g>
				<defs>
					<rect id="SVGID_153_" x="498.5" y="7.553" width="507" height="143.808"/>
				</defs>
				<clipPath id="SVGID_154_">
					<use xlink:href="#SVGID_153_"  overflow="visible"/>
				</clipPath>
				<path clip-path="url(#SVGID_154_)" fill="#9C5D40" d="M927.125,132.513c0,0-5.914,8.015,0,8.255
					c5.916,0.24,14.788-7.296,14.788-7.296S939.378,121.482,927.125,132.513"/>
			</g>
		</g>
	</g>
	<g>
		<g>
			<g>
				<defs>
					<path id="SVGID_155_" d="M507.786-24.012c-3.052,2.173-6.159,4.372-9.286,6.575"/>
				</defs>
				<clipPath id="SVGID_156_">
					<use xlink:href="#SVGID_155_"  overflow="visible"/>
				</clipPath>
			</g>
			<g>
				<defs>
					<path id="SVGID_157_" d="M507.786-24.012c-3.052,2.173-6.159,4.372-9.286,6.575"/>
				</defs>
				<defs>
					<polyline id="SVGID_158_" points="498.5,-17.437 498.5,45.382 691.934,45.382 					"/>
				</defs>
				<clipPath id="SVGID_159_">
					<use xlink:href="#SVGID_157_"  overflow="visible"/>
				</clipPath>
				<clipPath id="SVGID_160_" clip-path="url(#SVGID_159_)">
					<use xlink:href="#SVGID_158_"  overflow="visible"/>
				</clipPath>
				
					<linearGradient id="SVGID_161_" gradientUnits="userSpaceOnUse" x1="209.3792" y1="244.687" x2="210.0134" y2="244.687" gradientTransform="matrix(-374.9804 409.4789 409.4789 374.9804 -21123.8906 -177437.4375)">
					<stop  offset="0" style="stop-color:#718246"/>
					<stop  offset="1" style="stop-color:#F9B5B1"/>
				</linearGradient>
				<polygon clip-path="url(#SVGID_160_)" fill="url(#SVGID_161_)" points="726.498,7.64 603.707,141.727 463.937,13.731 
					586.727,-120.356 				"/>
			</g>
		</g>
	</g>
	<g>
		<g>
			<g>
				<defs>
					<rect id="SVGID_162_" x="498.5" y="7.553" width="507" height="143.808"/>
				</defs>
				<clipPath id="SVGID_163_">
					<use xlink:href="#SVGID_162_"  overflow="visible"/>
				</clipPath>
				<path clip-path="url(#SVGID_163_)" fill="#71A642" d="M1000.751,35.018c-88.208-7.605-174.454,3.803-262.005,0.634
					c-15.682,0-30.708,0-46.389-3.168c-11.108-2.535-20.908-6.971-32.669-4.437c-32.017,6.337-62.071,6.971-93.433,7.605
					c-23.521,0.634-48.35,3.803-70.565-3.168c-1.302,0-0.292-0.289,0.343-2.148c-0.723-0.014-1.442-0.021-2.16-0.021
					c0.652,5.704-3.267,28.519-1.307,28.519c22.215,6.971,47.043,3.803,70.564,3.169c31.362-0.634,61.418-1.268,93.434-7.605
					c11.761-2.535,21.561,1.901,32.669,4.437c15.68,3.169,30.708,3.169,46.388,3.169c87.553,3.168,173.799-8.239,262.004-0.634
					c5.228,0.634,11.108,0,16.436-0.688c0,0,0.061-0.989,0.144-2.466c0.718-3.008,0.653-20.584,0.535-23.583
					C1010.098,35.179,1005.19,35.557,1000.751,35.018"/>
			</g>
		</g>
		<g>
			<g>
				<defs>
					<rect id="SVGID_164_" x="498.5" y="7.553" width="507" height="143.808"/>
				</defs>
				<clipPath id="SVGID_165_">
					<use xlink:href="#SVGID_164_"  overflow="visible"/>
				</clipPath>
				<g clip-path="url(#SVGID_165_)">
					<g>
						<g opacity="0.5">
							<g>
								<defs>
									<rect id="SVGID_166_" x="492.013" y="53.64" width="522.408" height="15.916"/>
								</defs>
								<clipPath id="SVGID_167_">
									<use xlink:href="#SVGID_166_"  overflow="visible"/>
								</clipPath>
								<path clip-path="url(#SVGID_167_)" fill="#492F1A" d="M1014.06,60.681c-5.326,0.688-11.208,1.321-16.435,0.688
									c-88.206-7.605-174.452,3.802-262.005,0.634c-15.681,0-30.708,0-46.388-3.169c-11.107-2.535-20.908-6.972-32.669-4.437
									c-32.017,6.338-62.071,6.972-93.434,7.605c-23.521,0.634-48.35,3.802-70.564-3.169c-0.147,0-0.259-0.146-0.345-0.387
									c-0.306,3.876-0.341,6.673,0.345,6.673c22.215,6.972,47.044,3.803,70.564,3.169c31.362-0.634,61.417-1.268,93.434-7.604
									c11.761-2.535,21.561,1.901,32.669,4.436c15.68,3.169,30.707,3.169,46.388,3.169c87.553,3.169,173.799-8.238,262.005-0.634
									c5.227,0.634,11.106,0,16.435-0.687c0,0,0.06-0.989,0.144-2.467C1014.764,62.149,1014.06,60.681,1014.06,60.681"/>
							</g>
						</g>
					</g>
					<g>
						<defs>
							<rect id="SVGID_168_" x="498.5" y="7.553" width="507" height="143.808"/>
						</defs>
						<clipPath id="SVGID_169_">
							<use xlink:href="#SVGID_168_"  overflow="visible"/>
						</clipPath>
						<g clip-path="url(#SVGID_169_)">
							<g>
								<g>
									<defs>
										<path id="SVGID_170_" d="M675.162,20.983c-1.877-0.009-3.762,0.019-5.654,0.093c-7.738,0.409-15.444,0.73-23.129,1.04
											l-1.951,0.077c-11.091,0.444-22.133,0.883-33.146,1.531l-1.352,0.077c-0.352,0.021-0.701,0.043-1.053,0.065l-7.219,0.485
											c-12.904,0.932-25.778,2.249-38.65,4.33c-7.889,1.435-16.245,1.424-24.748,0.857l-1.538-0.11
											c-0.133-0.01-0.267-0.018-0.399-0.028l-7.357-0.657c-10.287-1.029-20.625-2.397-30.465-2.578v7.142
											c21.486,5.885,37.464,7.783,60,7.176c31.36-0.634,49.595-0.052,81.61-6.389c11.761-2.535,45.531-0.146,56.64,2.389
											c15.681,3.168,26.314-0.832,41.996-0.832c37.994,1.375,75.742,0.006,113.51-1.364c49.265-1.786,98.564-3.575,148.495,0.73
											c1.536,0.188,3.129,0.264,4.749,0.262v-7.955c-3.319,0.269-6.639,0.381-9.958,0.088
											c-20.108-1.788-40.173-2.821-60.206-3.29l-1.245-0.026c-8.713-0.194-17.417-0.286-26.119-0.28l-1.335,0.002
											c-0.351,0-0.7,0.002-1.05,0.004l-7.3,0.039c-28.146,0.229-56.242,1.361-84.319,2.893l-1.571,0.085
											c-16.926,0.933-33.844,2.005-50.764,3.108c-15.029,0.634-28.748-0.633-43.776-3.802
											c-11.319-2.196-22.325-4.085-33.452-4.829l-1.531-0.09c-0.144-0.008-0.286-0.018-0.428-0.025L675.162,20.983z"/>
									</defs>
									<clipPath id="SVGID_171_">
										<use xlink:href="#SVGID_170_"  overflow="visible"/>
									</clipPath>
									
										<linearGradient id="SVGID_172_" gradientUnits="userSpaceOnUse" x1="198.0745" y1="240.5601" x2="198.7081" y2="240.5601" gradientTransform="matrix(0 -49.3661 -49.3661 0 12627.5098 9821.7715)">
										<stop  offset="0" style="stop-color:#93B93E"/>
										<stop  offset="1" style="stop-color:#BFD745"/>
									</linearGradient>
									<rect x="498.5" y="9.15" clip-path="url(#SVGID_171_)" fill="url(#SVGID_172_)" width="507" height="30.042"/>
								</g>
							</g>
						</g>
					</g>
				</g>
			</g>
		</g>
	</g>
</g>
</svg>
